<?xml version="1.0" encoding="utf-8"?>
<!-- Generator: Adobe Illustrator 21.1.0, SVG Export Plug-In . SVG Version: 6.00 Build 0)  -->
<svg version="1.1" id="Layer_1" xmlns="http://www.w3.org/2000/svg" xmlns:xlink="http://www.w3.org/1999/xlink" x="0px" y="0px"
	 viewBox="0 0 294.5 74.2" style="enable-background:new 0 0 294.5 74.2;" xml:space="preserve">
<style type="text/css">
	.st0{fill:#4D6480;}
	.st1{fill:#3EBFC1;}
	.st2{fill:#00A6A8;}
	.st3{fill:none;}
	.st4{opacity:0.4;fill:#0D4F4F;}
</style>
<g>
	<path class="st0" d="M101.3,16.4c7.2,0,11.9,2.8,14.2,4.6c1.4,0.9,1.5,2.4,0.5,3.8l-0.9,1.3c-1,1.5-2.2,1.6-3.8,0.7
		c-1.8-1.3-5.1-3.2-9.6-3.2c-8.7,0-15,6.5-15,15.3c0,8.8,6.3,15.5,15.2,15.5c5.2,0,8.9-2.4,11-3.9c1.5-1,2.8-0.9,3.8,0.8l0.7,1.3
		c0.9,1.4,0.6,2.8-0.8,3.7c-2.4,2-7.6,5.3-15.3,5.3c-13.5,0-23-9.6-23-22.6C78.3,26.1,87.8,16.4,101.3,16.4z"/>
	<path class="st0" d="M125.8,20.2c0-1.9,0.9-2.8,2.8-2.8h2.6c1.8,0,2.7,0.9,2.7,2.8v22.9c0,6,1.3,10.7,8.1,10.7
		c8.9,0,14-7.7,14-16.3V20.2c0-1.9,0.9-2.8,2.8-2.8h2.6c1.8,0,2.8,0.9,2.8,2.8v37.5c0,1.9-1,2.8-2.8,2.8h-2.4
		c-1.9,0-2.8-0.9-2.8-2.8v-3.8c0-1.3,0.3-2.5,0.3-2.5h-0.2c-1.9,4.3-7.6,10.1-16,10.1c-9.7,0-14.6-5.1-14.6-16.5V20.2z"/>
	<path class="st0" d="M176.4,3.2c0-1.9,0.9-2.8,2.8-2.8h2.6c1.8,0,2.7,0.9,2.7,2.8v17.5c0,2.1-0.3,3.7-0.3,3.7h0.2
		c0,0,3.8-7.9,14-7.9c11.4,0,18.8,9.2,18.8,22.5c0,13.8-8.3,22.6-19.5,22.6c-10.1,0-13.8-8.2-13.8-8.2h-0.2c0,0,0.3,1,0.3,2.6V58
		c0,1.5-1,2.5-2.8,2.5h-2.1c-1.9,0-2.8-0.9-2.8-2.8V3.2z M196.5,54.3c6.9,0,12.5-5.5,12.5-15.3c0-9.4-5-15.4-12.2-15.4
		c-6.5,0-12.4,4.6-12.4,15.3C184.4,46.8,188.4,54.3,196.5,54.3z"/>
	<path class="st0" d="M245.5,16.4c11.9,0,18.6,8.5,18.6,20.5c0,1.5-1.2,2.9-2.9,2.9h-28.8c0.5,9.4,7.2,14.6,14.9,14.6
		c4.7,0,8.3-2,10.3-3.4c1.6-0.9,2.9-0.7,3.8,0.9l0.8,1.3c0.9,1.4,0.6,2.9-0.8,3.7c-2.6,1.8-7.7,4.6-14.6,4.6
		c-13.5,0-22.8-9.8-22.8-22.6C224,25.2,233.3,16.4,245.5,16.4z M255.8,34.3c-0.3-7.6-4.8-11.5-10.5-11.5c-6.3,0-11.4,4.3-12.6,11.5
		H255.8z"/>
	<path class="st0" d="M274.9,24.5h-3c-1.8,0-2.7-1-2.7-2.8v-1.1c0-1.8,0.9-2.8,2.8-2.8h3.1V8.3c0-1.9,1-2.8,2.8-2.8h2.5
		c1.9,0,2.8,0.9,2.8,2.8v9.5h7.5c1.9,0,2.8,1,2.8,2.8v1.1c0,1.8-0.9,2.8-2.7,2.8h-7.6v19.2c0,8.2,5,9.5,8.2,9.7c2.2,0.2,3,0.9,3,2.8
		V58c0,2-1.1,2.8-3.4,2.8c-8.5,0-16-4.9-16-15.8V24.5z"/>
</g>
<g>
	<path class="st1" d="M60.5,38.4C60.5,38.4,60.5,38.4,60.5,38.4c0.6-0.8,1.2-1.7,1.7-2.6c0,0,0,0,0,0c0.1-0.1,0.2-0.3,0.2-0.4
		c0.6-1.1,1.1-2.2,1.5-3.3c0.8-2.3,1.3-4.8,1.3-7.4c0,0,0,0,0,0c0,0,0,0,0,0c0,0,0,0,0,0c0-3-0.6-5.9-1.7-8.5
		c-1.2-2.6-2.7-5-4.7-6.9c-2-2-4.3-3.5-6.9-4.7c-2.7-1.2-5.5-1.7-8.6-1.7h-10h-1.2h-9.8c-3.1,0-5.9,0.6-8.6,1.7
		c-2.6,1.2-5,2.7-6.9,4.7c-2,2-3.5,4.3-4.7,6.9c-1.2,2.6-1.7,5.5-1.7,8.6v27.5c0,3.1,0.6,5.9,1.7,8.6c1.2,2.6,2.7,5,4.7,6.9
		c2,2,4.3,3.5,6.9,4.7c2.7,1.2,5.5,1.7,8.6,1.7h9.8h1.2h10c1.2,0,2.3-0.1,3.4-0.2c0,0,0,0,0,0c7.6-1.2,14-6.4,16.8-13.3l0,0.2
		c1.2-2.6,1.7-5.5,1.7-8.6c0-2.6-0.4-5-1.3-7.4C63.2,42.5,62,40.3,60.5,38.4C60.5,38.4,60.5,38.4,60.5,38.4
		C60.5,38.4,60.5,38.4,60.5,38.4L60.5,38.4C60.5,38.4,60.5,38.4,60.5,38.4z M47.3,56c-1.1,1.1-2.4,1.6-3.9,1.6h-9.9v0
		c0,0-0.1,0-0.1,0h-1.2h-9.8c-1.6,0-2.9-0.5-3.9-1.6c-1.1-1.1-1.6-2.4-1.6-3.9V24.7c0-1.5,0.5-2.8,1.6-3.8c1.1-1.1,2.4-1.6,3.9-1.6
		h9.8h1.2c0,0,0.1,0,0.1,0v0h9.9c1.6,0,2.9,0.5,3.9,1.6c0.7,0.7,1.2,1.6,1.4,2.5c0.1,0.4,0.2,0.9,0.2,1.3c0,1.6-0.5,2.9-1.6,3.9
		c-0.1,0.1-0.3,0.2-0.4,0.4c-0.1,0.1-0.1,0.1-0.2,0.2c-0.1,0-0.1,0.1-0.2,0.1c-0.1,0.1-0.2,0.1-0.3,0.2c-0.1,0-0.1,0.1-0.2,0.1
		c-0.1,0.1-0.2,0.1-0.3,0.2c0,0-0.1,0-0.1,0.1c-0.1,0-0.2,0.1-0.3,0.1c0,0-0.1,0-0.1,0C45,30,44.9,30,44.8,30c0,0,0,0-0.1,0
		c0,0,0,0,0,0c0,0-0.1,0-0.1,0c-0.1,0-0.2,0-0.4,0.1c0,0,0,0,0,0c0,0,0,0,0,0c0,0-0.1,0-0.1,0c0,0,0,0-0.1,0c-0.1,0-0.1,0-0.2,0
		c0,0-0.1,0-0.1,0c-0.1,0-0.2,0-0.3,0l-16,0v16.5l16,0c1.6,0,2.9,0.5,3.9,1.6c1.1,1.1,1.6,2.4,1.6,3.9C48.9,53.7,48.4,55,47.3,56z"
		/>
	<path class="st1" d="M44,30.1c-0.1,0-0.1,0-0.2,0c-0.1,0-0.1,0-0.2,0C43.8,30.2,43.9,30.1,44,30.1C44,30.1,44,30.1,44,30.1z"/>
	<path class="st1" d="M43.7,30.2c0.1,0,0.2,0,0.3,0l0,0C43.9,30.1,43.8,30.2,43.7,30.2z"/>
	<path class="st2" d="M44,30.1C44,30.1,44,30.1,44,30.1C44,30.1,44,30.1,44,30.1C44,30.1,44,30.1,44,30.1z"/>
	<path class="st2" d="M44.6,30.1c-0.1,0-0.3,0-0.4,0.1C44.3,30.1,44.5,30.1,44.6,30.1z"/>
	<path class="st2" d="M44,30.1L44,30.1C44,30.1,44,30.1,44,30.1C44,30.1,44,30.1,44,30.1z"/>
	<path class="st3" d="M44.7,30C44.8,30,44.8,30,44.7,30c0.2,0,0.3-0.1,0.4-0.1c0,0,0.1,0,0.1,0c0.1,0,0.2-0.1,0.3-0.1
		c0,0,0.1,0,0.1-0.1c0.1,0,0.2-0.1,0.3-0.2c0.1,0,0.1-0.1,0.2-0.1c0.1-0.1,0.2-0.1,0.3-0.2c0.1,0,0.1-0.1,0.2-0.1
		c0.1-0.1,0.1-0.1,0.2-0.2c0.1-0.1,0.3-0.2,0.4-0.4c1.1-1.1,1.6-2.4,1.6-3.9c0-0.5-0.1-0.9-0.2-1.3c-0.2-0.9-0.7-1.8-1.4-2.5
		c-1.1-1.1-2.4-1.6-3.9-1.6h-9.9v0c0,0-0.1,0-0.1,0h-1.2h-9.8c-1.6,0-2.9,0.5-3.9,1.6c-1.1,1.1-1.6,2.3-1.6,3.8v27.5
		c0,1.5,0.5,2.8,1.6,3.9c1.1,1.1,2.4,1.6,3.9,1.6h9.8h1.2c0,0,0.1,0,0.1,0v0h9.9c1.6,0,2.9-0.5,3.9-1.6c1.1-1.1,1.6-2.4,1.6-3.9
		c0-1.6-0.5-2.9-1.6-3.9c-1.1-1.1-2.4-1.6-3.9-1.6l-16,0V30.1l16,0c0.1,0,0.2,0,0.3,0c0.1,0,0.2,0,0.3,0c0,0,0,0,0.1,0
		c0,0,0.1,0,0.1,0c0,0,0,0,0,0c0.1,0,0.2,0,0.4-0.1C44.6,30,44.7,30,44.7,30z"/>
	<path class="st4" d="M44.2,30.1C44.2,30.1,44.2,30.1,44.2,30.1C44.2,30.1,44.2,30.1,44.2,30.1C44.2,30.1,44.2,30.1,44.2,30.1z"/>
	<path class="st3" d="M44.7,30C44.8,30,44.8,30,44.7,30c0.2,0,0.3-0.1,0.4-0.1c0,0,0.1,0,0.1,0c0.1,0,0.2-0.1,0.3-0.1
		c0,0,0.1,0,0.1-0.1c0.1,0,0.2-0.1,0.3-0.2c0.1,0,0.1-0.1,0.2-0.1c0.1-0.1,0.2-0.1,0.3-0.2c0.1,0,0.1-0.1,0.2-0.1
		c0.1-0.1,0.1-0.1,0.2-0.2c0.1-0.1,0.3-0.2,0.4-0.4c1.1-1.1,1.6-2.4,1.6-3.9c0-0.5-0.1-0.9-0.2-1.3c-0.2-0.9-0.7-1.8-1.4-2.5
		c-1.1-1.1-2.4-1.6-3.9-1.6h-9.9v0c0,0-0.1,0-0.1,0h-1.2h-9.8c-1.6,0-2.9,0.5-3.9,1.6c-1.1,1.1-1.6,2.3-1.6,3.8v27.5
		c0,1.5,0.5,2.8,1.6,3.9c1.1,1.1,2.4,1.6,3.9,1.6h9.8h1.2c0,0,0.1,0,0.1,0v0h9.9c1.6,0,2.9-0.5,3.9-1.6c1.1-1.1,1.6-2.4,1.6-3.9
		c0-1.6-0.5-2.9-1.6-3.9c-1.1-1.1-2.4-1.6-3.9-1.6l-16,0V30.1l16,0c0.1,0,0.2,0,0.3,0c0.1,0,0.2,0,0.3,0c0,0,0,0,0.1,0
		c0,0,0.1,0,0.1,0c0,0,0,0,0,0c0,0,0,0,0,0c0.1,0,0.2,0,0.4-0.1C44.6,30,44.7,30,44.7,30z"/>
	<path class="st3" d="M44.2,30.1C44.2,30.1,44.2,30.1,44.2,30.1c0.2,0,0.3,0,0.4-0.1c0,0,0,0,0,0c0,0,0,0,0.1,0c0.1,0,0.2,0,0.3-0.1
		c0,0,0.1,0,0.1,0c0.1,0,0.2-0.1,0.3-0.1c0,0,0.1,0,0.1-0.1c0.1,0,0.2-0.1,0.3-0.2c0.1,0,0.1-0.1,0.2-0.1c0.1-0.1,0.2-0.1,0.3-0.2
		c0.1,0,0.1-0.1,0.2-0.1c0.1-0.1,0.1-0.1,0.2-0.2c0.1-0.1,0.3-0.2,0.4-0.4c1.1-1.1,1.6-2.4,1.6-3.9c0-0.5-0.1-0.9-0.2-1.3
		c-0.2-0.9-0.7-1.8-1.4-2.5c-1.1-1.1-2.4-1.6-3.9-1.6h-9.9v0c0,0-0.1,0-0.1,0h-1.2h-9.8c-1.6,0-2.9,0.5-3.9,1.6
		c-1.1,1.1-1.6,2.3-1.6,3.8v27.5c0,1.5,0.5,2.8,1.6,3.9c1.1,1.1,2.4,1.6,3.9,1.6h9.8h1.2c0,0,0.1,0,0.1,0v0h9.9
		c1.6,0,2.9-0.5,3.9-1.6c1.1-1.1,1.6-2.4,1.6-3.9c0-1.6-0.5-2.9-1.6-3.9c-1.1-1.1-2.4-1.6-3.9-1.6l-16,0V30.1l16,0
		c0.1,0,0.2,0,0.3,0c0.1,0,0.1,0,0.1,0C43.9,30.1,44.1,30.1,44.2,30.1C44.2,30.1,44.2,30.1,44.2,30.1z"/>
	<path class="st1" d="M44.7,30C44.6,30,44.6,30,44.7,30c-0.2,0-0.3,0.1-0.5,0.1c0,0,0,0,0,0c0,0,0,0,0,0c0,0-0.1,0-0.1,0
		c0,0,0,0-0.1,0c-0.1,0-0.1,0-0.2,0c0,0,0,0,0,0c6.8,0.1,12.8,3.3,16.7,8.3c0,0,0,0,0,0c0,0,0,0,0,0c0.6-0.8,1.2-1.7,1.7-2.6
		c0,0,0,0,0,0c-3.9-3.7-9.2-5.9-15-5.9C46.4,29.9,45.5,29.9,44.7,30z"/>
	<path class="st4" d="M44.7,30C44.6,30,44.6,30,44.7,30c-0.2,0-0.3,0.1-0.5,0.1c0,0,0,0,0,0c0,0,0,0,0,0c0,0-0.1,0-0.1,0
		c0,0,0,0-0.1,0c-0.1,0-0.1,0-0.2,0c0,0,0,0,0,0c6.8,0.1,12.8,3.3,16.7,8.3c0,0,0,0,0,0c0,0,0,0,0,0c0.6-0.8,1.2-1.7,1.7-2.6
		c0,0,0,0,0,0c-3.9-3.7-9.2-5.9-15-5.9C46.4,29.9,45.5,29.9,44.7,30z"/>
</g>
</svg>
