<?xml version="1.0" encoding="utf-8"?>
<!-- Generator: Adobe Illustrator 23.1.0, SVG Export Plug-In . SVG Version: 6.00 Build 0)  -->
<svg version="1.1" id="Layer_1" xmlns="http://www.w3.org/2000/svg" xmlns:xlink="http://www.w3.org/1999/xlink" x="0px" y="0px"
	 viewBox="0 0 601 989" style="enable-background:new 0 0 601 989;" xml:space="preserve">
<style type="text/css">
	.st0{fill:#FF2B1C;}
</style>
<g>
	<path class="st0" d="M28.8,403.8c0-73.6,0.1-147.3-0.2-220.9c0-7.8,2.4-12.1,9.4-16c42.5-23.8,84.7-48.3,127.1-72.3
		c26.3-15,52.9-29.5,79.3-44.4c17.4-9.9,34.7-20,51.9-30.2c6.4-3.9,11.6-1.2,17,1.9c13.3,7.7,26.6,15.5,40,23.2
		c19,11,38.1,21.9,57.1,32.9c29.2,16.9,58.5,33.7,87.6,50.8c24.5,14.3,48.7,29.1,73.2,43.4c5,2.9,6.5,6.7,6.5,12.2
		c-0.1,56.3-0.1,112.6-0.1,169c0,81.8,0,163.6,0,245.4c0,7.8-1.1,15.7-0.4,23.4c0.9,10-4.2,15.1-12.1,19.5
		c-14.6,8.1-28.8,16.8-43.3,25.1c-20.1,11.6-40.3,22.9-60.4,34.5c-15.5,8.9-30.9,18-46.4,26.9c-18,10.4-36.1,20.8-54.1,31.2
		c-16.7,9.6-33.4,19.1-50,28.9c-5.6,3.3-10.5,3.2-16.2-0.2c-19.8-11.8-39.7-23.3-59.7-34.7c-60.7-34.4-121.6-68.6-182.4-102.9
		c-5.9-3.4-11.9-6.7-17.9-9.9c-3.7-2-5.7-4.9-5.8-9.1c-0.1-3.7-0.2-7.3-0.2-11C28.8,548.1,28.8,476,28.8,403.8
		C28.8,403.8,28.8,403.8,28.8,403.8z M50.1,612.5c2-1,3.2-1.4,4.4-2.1c34.2-19.6,68.4-39.3,102.7-58.8c3.1-1.7,3.3-4,3.3-7
		c-0.1-92.9-0.1-185.9,0.1-278.8c0-5.5-1.9-8.2-6.4-10.8c-28.1-15.9-56-32.2-84-48.3c-6.4-3.7-12.9-7.2-20-11.2
		C50.1,335,50.1,473.3,50.1,612.5z M314.1,46.6c-0.2,2.1-0.4,2.9-0.4,3.7c0,39.8,0,79.6-0.1,119.5c0,3.2,1.4,4.7,3.9,6.2
		c36.6,20.8,73.2,41.6,109.8,62.6c3.4,1.9,5.9,1.8,9.2-0.1c33.4-19.4,66.9-38.6,100.3-57.9c1.4-0.8,2.6-1.8,4.5-3.3
		C465.4,133.6,390.1,90.4,314.1,46.6z M313.9,761.9c76.2-43.7,151.6-87,227.9-130.9c-3.5-2.2-5.7-3.6-7.9-4.9
		c-8.6-5-17.3-9.9-26-14.9c-24.1-13.9-48.2-27.7-72.2-41.6c-2.6-1.5-4.6-1.7-7.3-0.2c-36.8,21.1-73.7,42.2-110.6,63.1
		c-3.3,1.8-4.2,4-4.2,7.5c0.1,38.6,0.1,77.3,0.1,115.9C313.7,757.5,313.8,759.2,313.9,761.9z M181.9,535c2.1-0.9,3.4-1.4,4.7-2.1
		c33.7-19.4,67.4-39,101.2-58.3c3.1-1.8,4.4-3.7,4.4-7.4c-0.1-42-0.1-83.9,0-125.9c0-3.6-1-5.7-4.2-7.5
		c-33.9-19.4-67.8-39-101.7-58.4c-1.2-0.7-2.6-1.1-4.3-1.8C181.9,361,181.9,447.5,181.9,535z M424.3,420.7c-2.9,1.6-4.6,2.4-6.3,3.4
		c-33.6,19.4-67.1,38.8-100.8,58c-3,1.7-3.6,3.8-3.6,6.9c0.1,38.5,0.1,76.9,0.1,115.4c0,1.6,0.2,3.1,0.3,5.2c1.8-0.8,3-1.2,4.1-1.9
		c33.8-19.3,67.6-38.6,101.5-57.8c3.5-2,4.8-4.1,4.8-8.2c-0.2-36.1-0.1-72.3-0.1-108.4C424.3,429.6,424.3,425.8,424.3,420.7z
		 M423.8,387.4c0.3-2.2,0.5-3.3,0.5-4.5c0-39.3,0.1-78.6-0.1-117.9c0-1.9-1.9-4.6-3.6-5.6c-33.9-19.5-67.8-38.8-101.8-58.2
		c-1.3-0.8-2.8-1.3-4.6-2.1c-0.2,1.9-0.4,3.1-0.4,4.2c0,39,0,77.9-0.1,116.9c0,3.4,1.5,5,4.2,6.5c32.2,18.4,64.3,37,96.5,55.5
		C417.2,383.8,420.1,385.4,423.8,387.4z M63.2,178.3c1.4,1.1,2.3,1.9,3.3,2.5c33.6,19.3,67.3,38.6,100.9,58c3.2,1.8,5.4,1.3,8.2-0.4
		c33.4-19.3,66.9-38.6,100.4-57.8c1.6-0.9,3.2-2.1,5.2-3.3c-1.6-1.1-2.4-1.8-3.4-2.4c-32.7-18.8-65.6-37.5-98.2-56.6
		c-4.7-2.8-8.1-2.5-12.6,0.2c-25.4,14.9-51,29.5-76.6,44.2C81.4,167.7,72.5,172.9,63.2,178.3z M281.6,631.4
		c-9.1-5.3-17.2-9.9-25.2-14.6c-27.1-15.6-54.2-31.3-81.4-46.7c-1.8-1-5-1.5-6.6-0.6c-33.7,19.2-67.3,38.5-100.9,57.9
		c-1.2,0.7-2.3,1.6-3.9,2.8c1.8,1.2,2.9,2.1,4.2,2.8c34.1,19.6,68.1,39.2,102.3,58.6c1.8,1,5.3,0.9,7.1-0.2
		c24.4-13.7,48.6-27.7,72.8-41.6C260.2,643.9,270.4,638,281.6,631.4z M545.7,478c-33.8-19.4-66.4-38.2-99.7-57.4
		c0,38.4,0,75.7,0,114.2C479.3,515.8,511.9,497.2,545.7,478z M456.7,556.7c2.6,1.7,4,2.7,5.4,3.5c29.3,16.8,58.5,33.7,87.8,50.5
		c5.7,3.3,6.4,2.9,6.4-3.6c0-33.8,0-67.6,0-101.4c0-1.7-0.2-3.4-0.4-6.1C522.6,518.8,490.1,537.5,456.7,556.7z M545.7,330.5
		c-33.7-19.1-66.3-37.6-99.7-56.5c0,38.1,0,75.3,0,113.9C479.5,368.6,512.1,349.8,545.7,330.5z M555.9,194.4
		c-33.3,19.1-65.9,37.8-99.7,57.1c33.7,19.4,66.3,38.1,99.7,57.3C555.9,270.2,555.9,232.9,555.9,194.4z M192.3,553.9
		c33.9,19.1,66.4,37.4,99.6,56.1c0-38,0-75,0-113.3C258.6,515.9,226.2,534.5,192.3,553.9z M292,198.5c-33.6,18.9-66.1,37.1-99.7,56
		c33.8,19.4,66.3,38.1,99.7,57.3C292,273.5,292,236.6,292,198.5z M194.7,102.6c33,19,64.7,37.3,97,55.9c0-37.5,0-74.1,0-111.7
		C259.3,65.4,227.6,83.6,194.7,102.6z M194.6,705.9c33,19,64.8,37.2,97.3,55.8c0-37.8,0-74.1,0-111.6
		C259.4,668.8,227.6,687,194.6,705.9z M314.2,459.6c32.4-18.6,63.8-36.7,96.2-55.4c-32.5-18.7-63.9-36.7-96.2-55.3
		C314.2,386.2,314.2,422.2,314.2,459.6z M460.4,404.2c32.5,18.7,63.6,36.5,95.3,54.7c0-37,0-72.8,0-109.4
		C523.9,367.7,492.8,385.6,460.4,404.2z"/>
	<g>
		<path class="st0" d="M32.2,783h20.1v90.9h49.4v17.6H32.2V783z"/>
		<path class="st0" d="M198.3,814.2v77.3h-18.7v-13.3c-2.5,4.3-6.2,8-11.2,10.9c-5,2.9-10.7,4.4-17,4.4c-7.5,0-14.2-1.8-20.2-5.4
			c-6-3.6-10.6-8.5-13.9-14.7c-3.3-6.2-4.9-12.9-4.9-20.4s1.6-14.2,4.9-20.4c3.3-6.2,7.9-11.1,13.9-14.8c6-3.7,12.7-5.5,20.2-5.5
			c6.6,0,12.3,1.5,17.4,4.4c5,2.9,8.5,6.5,10.6,10.9v-13.3H198.3z M138.3,835.5c-4.3,4.7-6.5,10.5-6.5,17.4c0,6.9,2.2,12.6,6.5,17.3
			c4.3,4.7,9.9,7,16.8,7c6.7,0,12.3-2.2,16.9-6.7c4.5-4.5,6.8-10.4,6.8-17.6s-2.3-13.2-6.8-17.7c-4.6-4.5-10.2-6.8-16.8-6.8
			C148.3,828.4,142.7,830.8,138.3,835.5z"/>
		<path class="st0" d="M266.3,832.3h-4.2c-7.7,0-13.5,2.1-17.3,6.3c-3.8,4.2-5.7,10.2-5.7,18.2v34.7h-19.5v-77.3h18.9v16.4
			c1.4-5.9,4.6-10.3,9.7-13.2c5-2.9,11.1-4.4,18.1-4.4V832.3z"/>
		<path class="st0" d="M359.4,814.2v77.3h-18.7v-13.3c-2.5,4.3-6.2,8-11.2,10.9c-5,2.9-10.7,4.4-17,4.4c-7.5,0-14.2-1.8-20.2-5.4
			c-6-3.6-10.6-8.5-13.9-14.7c-3.3-6.2-4.9-12.9-4.9-20.4s1.6-14.2,4.9-20.4c3.3-6.2,7.9-11.1,13.9-14.8c6-3.7,12.7-5.5,20.2-5.5
			c6.6,0,12.3,1.5,17.4,4.4c5,2.9,8.5,6.5,10.6,10.9v-13.3H359.4z M299.5,835.5c-4.3,4.7-6.5,10.5-6.5,17.4c0,6.9,2.2,12.6,6.5,17.3
			c4.3,4.7,9.9,7,16.8,7c6.7,0,12.3-2.2,16.9-6.7c4.5-4.5,6.8-10.4,6.8-17.6s-2.3-13.2-6.8-17.7c-4.6-4.5-10.2-6.8-16.8-6.8
			C309.4,828.4,303.8,830.8,299.5,835.5z"/>
		<path class="st0" d="M371.6,814.2h20.1l20.7,55l20.8-55h20l-32.1,77.3h-17.4L371.6,814.2z"/>
		<path class="st0" d="M477.5,859.4c0.6,6.1,2.8,10.8,6.7,14.3c3.8,3.5,9.1,5.2,15.8,5.2c4.6,0,8.7-0.9,12.3-2.7
			c3.5-1.8,6.3-4.3,8.2-7.4h18.2c-2.8,7.1-7.7,13-14.6,17.6c-6.9,4.6-14.9,6.9-24,6.9c-12.9,0-23.1-3.8-30.5-11.4
			c-7.4-7.6-11.2-17.4-11.2-29.2c0-11.7,3.8-21.4,11.4-29c7.6-7.6,17.4-11.5,29.3-11.5c12,0,21.8,3.8,29.3,11.4
			c7.5,7.6,11.3,17.4,11.3,29.4v6.4H477.5z M499.4,826.3c-6.1,0-11.1,1.8-14.9,5.4c-3.9,3.6-6.2,8.6-7.1,14.9H521
			c-0.6-6.1-2.8-11-6.7-14.7C510.5,828.1,505.5,826.3,499.4,826.3z"/>
		<path class="st0" d="M556.3,891.5V778.4h19.5v113.1H556.3z"/>
	</g>
	<g>
		<path class="st0" d="M59.2,910.7c4,0,7.7,0.8,11,2.3c3.4,1.5,6.1,3.6,8.3,6.1c2.2,2.5,3.8,5.3,4.8,8.5h-9.1
			c-1.3-2.8-3.3-5-5.8-6.6c-2.6-1.6-5.7-2.4-9.3-2.4c-5.1,0-9.3,1.7-12.3,5c-3.1,3.3-4.6,7.5-4.6,12.5c0,5,1.5,9.2,4.6,12.5
			c3.1,3.3,7.2,5,12.3,5c3.7,0,6.8-0.8,9.3-2.4c2.6-1.6,4.5-3.8,5.8-6.6h9.1c-0.8,2.3-1.9,4.5-3.3,6.6c-1.5,2-3.2,3.8-5.2,5.4
			c-2,1.5-4.4,2.8-7.1,3.7c-2.7,0.9-5.5,1.3-8.5,1.3c-3.9,0-7.4-0.7-10.7-2c-3.3-1.3-6-3.1-8.3-5.4c-2.2-2.3-4-5-5.2-8.1
			c-1.3-3.1-1.9-6.4-1.9-9.9c0-3.5,0.6-6.8,1.9-9.9c1.3-3.1,3-5.8,5.2-8.1c2.2-2.3,5-4.1,8.3-5.4C51.8,911.3,55.4,910.7,59.2,910.7z
			"/>
		<path class="st0" d="M99.2,936.1c0-4.7,1.1-9,3.2-12.9c2.2-3.9,5.2-6.9,9.2-9.2c4-2.3,8.5-3.4,13.6-3.4c5.1,0,9.6,1.1,13.6,3.4
			c4,2.3,7.1,5.3,9.2,9.2c2.1,3.9,3.2,8.2,3.2,12.9c0,3.5-0.6,6.9-1.9,10c-1.3,3.1-3,5.8-5.2,8.1c-2.2,2.3-5,4.1-8.3,5.4
			c-3.3,1.3-6.8,2-10.6,2c-3.8,0-7.3-0.7-10.6-2c-3.3-1.3-6-3.1-8.3-5.4c-2.2-2.3-4-5-5.3-8.1C99.9,943,99.2,939.7,99.2,936.1z
			 M125.3,918.5c-3.4,0-6.4,0.8-9,2.5c-2.6,1.6-4.6,3.8-5.9,6.4c-1.3,2.7-2,5.6-2,8.7c0,3.2,0.7,6.1,2,8.7c1.3,2.6,3.3,4.8,5.9,6.4
			c2.6,1.7,5.6,2.5,9,2.5c3.4,0,6.4-0.8,9.1-2.5c2.6-1.7,4.6-3.8,5.9-6.4c1.3-2.6,2-5.5,2-8.7c0-3.2-0.7-6.1-2-8.8
			c-1.3-2.6-3.3-4.8-5.9-6.4C131.7,919.3,128.7,918.5,125.3,918.5z"/>
		<path class="st0" d="M195.7,961.3l-17.4-29.8v29.1h-8.6v-49h6.4l19.6,34.7l19.6-34.7h6.4v49H213v-29.1L195.7,961.3z"/>
		<path class="st0" d="M268.5,961.3l-17.4-29.8v29.1h-8.6v-49h6.4l19.6,34.7l19.6-34.7h6.4v49h-8.6v-29.1L268.5,961.3z"/>
		<path class="st0" d="M348.2,911.6h9.1v29.7c0,6.1-2,11-5.9,14.7c-3.9,3.7-9,5.6-15.2,5.6c-4.1,0-7.7-0.8-10.9-2.5
			c-3.2-1.7-5.7-4-7.5-7.1c-1.8-3.1-2.7-6.6-2.7-10.7v-29.7h9.1v29.9c0,3.8,1.1,6.8,3.3,8.9c2.2,2.1,5.1,3.2,8.7,3.2
			s6.5-1.1,8.7-3.2c2.2-2.1,3.3-5.1,3.3-8.9V911.6z"/>
		<path class="st0" d="M378,911.6h7.6l28.2,34.8v-34.8h8.9v49h-7.6l-28.2-34.7v34.7H378V911.6z"/>
		<path class="st0" d="M443.9,911.6h9.1v49h-9.1V911.6z"/>
		<path class="st0" d="M509.4,919.6h-14.8v41.1h-9.1v-41.1h-14.8v-7.9h38.7V919.6z"/>
		<path class="st0" d="M539.4,942.5l-17.2-30.9h9.7l12.1,22.4l12-22.4h9.7l-17.2,30.9v18.1h-9.1V942.5z"/>
	</g>
</g>
</svg>
